<svg width="49" height="49" viewBox="0 0 49 49" fill="none" xmlns="http://www.w3.org/2000/svg">
<mask id="mask0_142_19" style="mask-type:luminance" maskUnits="userSpaceOnUse" x="0" y="0" width="49" height="49">
<path d="M49 0H0V49H49V0Z" fill="white"/>
</mask>
<g mask="url(#mask0_142_19)">
<path d="M24.4998 44.1604C28.3883 44.1604 32.1895 43.0074 35.4226 40.8471C38.6558 38.6867 41.1757 35.6162 42.6638 32.0237C44.1518 28.4312 44.5412 24.4781 43.7826 20.6644C43.024 16.8506 41.1515 13.3474 38.4019 10.5979C35.6523 7.84831 32.1492 5.97583 28.3354 5.21723C24.5217 4.45862 20.5686 4.84797 16.9761 6.33602C13.3836 7.82408 10.3131 10.344 8.15275 13.5772C5.99242 16.8103 4.83936 20.6115 4.83936 24.4999C4.83936 29.7142 6.91072 34.715 10.5978 38.402C14.2848 42.0891 19.2856 44.1604 24.4998 44.1604Z" fill="white"/>
<path d="M24.4999 44.0849C28.3734 44.0849 32.16 42.9362 35.3807 40.7842C38.6014 38.6322 41.1116 35.5735 42.594 31.9948C44.0763 28.4161 44.4642 24.4783 43.7085 20.6792C42.9528 16.8801 41.0875 13.3904 38.3485 10.6514C35.6095 7.91238 32.1198 6.0471 28.3207 5.29141C24.5216 4.53572 20.5838 4.92357 17.0051 6.4059C13.4264 7.88824 10.3677 10.3985 8.21569 13.6192C6.06367 16.8399 4.91504 20.6265 4.91504 24.5C4.91504 29.6942 6.97844 34.6757 10.6513 38.3486C14.3242 42.0215 19.3057 44.0849 24.4999 44.0849Z" stroke="white"/>
<path d="M24.4999 49C22.8415 49.0003 21.1873 48.8336 19.5623 48.5023C14.8678 47.5383 10.5594 45.2182 7.17065 41.8294C3.78191 38.4407 1.46182 34.1322 0.497793 29.4378C-0.165931 26.1794 -0.165931 22.8206 0.497793 19.5622C1.4619 14.8678 3.78207 10.5593 7.17085 7.17063C10.5596 3.78192 14.8681 1.46187 19.5626 0.497869C22.821 -0.165855 26.1798 -0.165855 29.4382 0.497869C34.1327 1.46185 38.4412 3.78194 41.83 7.17071C45.2188 10.5595 47.539 14.868 48.503 19.5625C49.1666 22.8209 49.1666 26.1797 48.503 29.4381C47.539 34.1326 45.2189 38.4411 41.8301 41.8299C38.4414 45.2187 34.1328 47.5389 29.4383 48.5029C27.8131 48.834 26.1586 49.0005 24.4999 49ZM24.4999 1.66358C11.9081 1.66358 1.66351 11.9081 1.66351 24.5C1.66351 37.0919 11.9081 47.3364 24.4999 47.3364C37.0917 47.3364 47.3364 37.0921 47.3364 24.5C47.3364 11.9079 37.0923 1.66358 24.4999 1.66358Z" fill="white"/>
<path d="M34.2796 12.2137C33.8383 12.2187 33.4165 12.3962 33.1045 12.7082C32.7924 13.0203 32.6149 13.4421 32.6099 13.8833V33.4833L16.8573 12.2137H12.9736V26.5507H14.6433C15.0807 26.5443 15.498 26.3652 15.8039 26.0524C16.1099 25.7397 16.2798 25.3186 16.2766 24.8811V16.4241L32.0292 37.6574H35.9129V12.2137H34.2796Z" fill="#29034F"/>
</g>
</svg>
